<?xml version="1.0" encoding="UTF-8" standalone="no"?>
<!DOCTYPE svg PUBLIC "-//W3C//DTD SVG 1.1//EN"
 "http://www.w3.org/Graphics/SVG/1.1/DTD/svg11.dtd">
<!-- Generated by graphviz version 2.43.0 (0)
 -->
<!-- Title: %3 Pages: 1 -->
<svg width="961pt" height="575pt"
 viewBox="0.00 0.00 960.50 575.00" xmlns="http://www.w3.org/2000/svg" xmlns:xlink="http://www.w3.org/1999/xlink">
<g id="graph0" class="graph" transform="scale(1 1) rotate(0) translate(4 571)">
<title>%3</title>
<polygon fill="#0f0f0f" stroke="transparent" points="-4,4 -4,-571 956.5,-571 956.5,4 -4,4"/>
<!-- SERIES -->
<g id="node1" class="node">
<title>SERIES</title>
<path fill="#2d3142" stroke="#2e2e2e" d="M87,-45.5C87,-45.5 12,-45.5 12,-45.5 6,-45.5 0,-39.5 0,-33.5 0,-33.5 0,-19.5 0,-19.5 0,-13.5 6,-7.5 12,-7.5 12,-7.5 87,-7.5 87,-7.5 93,-7.5 99,-13.5 99,-19.5 99,-19.5 99,-33.5 99,-33.5 99,-39.5 93,-45.5 87,-45.5"/>
<text text-anchor="middle" x="49.5" y="-30.3" font-family="monospace" font-size="14.00" fill="#e8e8e8">SERIES</text>
<text text-anchor="middle" x="49.5" y="-15.3" font-family="monospace" font-size="14.00" fill="#e8e8e8">{id, name}</text>
</g>
<!-- DECKS -->
<g id="node2" class="node">
<title>DECKS</title>
<path fill="#2d3142" stroke="#2e2e2e" d="M382,-172C382,-172 167,-172 167,-172 161,-172 155,-166 155,-160 155,-160 155,-146 155,-146 155,-140 161,-134 167,-134 167,-134 382,-134 382,-134 388,-134 394,-140 394,-146 394,-146 394,-160 394,-160 394,-166 388,-172 382,-172"/>
<text text-anchor="middle" x="274.5" y="-156.8" font-family="monospace" font-size="14.00" fill="#e8e8e8">DECKS[]</text>
<text text-anchor="middle" x="274.5" y="-141.8" font-family="monospace" font-size="14.00" fill="#e8e8e8">{id, series, name, moves[]}</text>
</g>
<!-- DECKS&#45;&gt;SERIES -->
<g id="edge1" class="edge">
<title>DECKS&#45;&gt;SERIES</title>
<path fill="none" stroke="#000000" d="M241.78,-133.9C201.96,-111.86 134.65,-74.62 91.16,-50.55"/>
<polygon fill="#000000" stroke="#000000" points="92.7,-47.4 82.26,-45.63 89.31,-53.53 92.7,-47.4"/>
<text text-anchor="middle" x="187.5" y="-74.8" font-family="Times,serif" font-size="14.00">references</text>
</g>
<!-- Move -->
<g id="node3" class="node">
<title>Move</title>
<path fill="#1a2847" stroke="#2e2e2e" d="M302.5,-45.5C302.5,-45.5 186.5,-45.5 186.5,-45.5 180.5,-45.5 174.5,-39.5 174.5,-33.5 174.5,-33.5 174.5,-19.5 174.5,-19.5 174.5,-13.5 180.5,-7.5 186.5,-7.5 186.5,-7.5 302.5,-7.5 302.5,-7.5 308.5,-7.5 314.5,-13.5 314.5,-19.5 314.5,-19.5 314.5,-33.5 314.5,-33.5 314.5,-39.5 308.5,-45.5 302.5,-45.5"/>
<text text-anchor="middle" x="244.5" y="-30.3" font-family="monospace" font-size="14.00" fill="#e8e8e8">Move</text>
<text text-anchor="middle" x="244.5" y="-15.3" font-family="monospace" font-size="14.00" fill="#e8e8e8">{text, partner}</text>
</g>
<!-- DECKS&#45;&gt;Move -->
<g id="edge2" class="edge">
<title>DECKS&#45;&gt;Move</title>
<path fill="none" stroke="#000000" d="M270.14,-133.9C265.18,-113.34 257.04,-79.53 251.26,-55.55"/>
<polygon fill="#000000" stroke="#000000" points="254.61,-54.53 248.87,-45.63 247.81,-56.17 254.61,-54.53"/>
<text text-anchor="middle" x="289" y="-74.8" font-family="Times,serif" font-size="14.00">contains</text>
</g>
<!-- Progress -->
<g id="node4" class="node">
<title>Progress</title>
<path fill="#2a3d1a" stroke="#2e2e2e" d="M562,-202C562,-202 429,-202 429,-202 423,-202 417,-196 417,-190 417,-190 417,-116 417,-116 417,-110 423,-104 429,-104 429,-104 562,-104 562,-104 568,-104 574,-110 574,-116 574,-116 574,-190 574,-190 574,-196 568,-202 562,-202"/>
<text text-anchor="middle" x="495.5" y="-186.8" font-family="monospace" font-size="14.00" fill="#e8e8e8">Progress (State)</text>
<text text-anchor="middle" x="495.5" y="-171.8" font-family="monospace" font-size="14.00" fill="#e8e8e8">DeckStats {}</text>
<text text-anchor="middle" x="495.5" y="-156.8" font-family="monospace" font-size="14.00" fill="#e8e8e8"> &#160;currentStreak</text>
<text text-anchor="middle" x="495.5" y="-141.8" font-family="monospace" font-size="14.00" fill="#e8e8e8"> &#160;bestStreak</text>
<text text-anchor="middle" x="495.5" y="-126.8" font-family="monospace" font-size="14.00" fill="#e8e8e8"> &#160;lastAttemptDate</text>
<text text-anchor="middle" x="495.5" y="-111.8" font-family="monospace" font-size="14.00" fill="#e8e8e8"> &#160;attempts[]</text>
</g>
<!-- Attempt -->
<g id="node5" class="node">
<title>Attempt</title>
<path fill="#1a2847" stroke="#2e2e2e" d="M591,-53C591,-53 400,-53 400,-53 394,-53 388,-47 388,-41 388,-41 388,-12 388,-12 388,-6 394,0 400,0 400,0 591,0 591,0 597,0 603,-6 603,-12 603,-12 603,-41 603,-41 603,-47 597,-53 591,-53"/>
<text text-anchor="middle" x="495.5" y="-37.8" font-family="monospace" font-size="14.00" fill="#e8e8e8">Attempt</text>
<text text-anchor="middle" x="495.5" y="-22.8" font-family="monospace" font-size="14.00" fill="#e8e8e8">{date, finalStreak,</text>
<text text-anchor="middle" x="495.5" y="-7.8" font-family="monospace" font-size="14.00" fill="#e8e8e8"> wrongMoves[], duration}</text>
</g>
<!-- Progress&#45;&gt;Attempt -->
<g id="edge3" class="edge">
<title>Progress&#45;&gt;Attempt</title>
<path fill="none" stroke="#000000" d="M495.5,-103.87C495.5,-90.39 495.5,-75.99 495.5,-63.37"/>
<polygon fill="#000000" stroke="#000000" points="499,-63.24 495.5,-53.24 492,-63.24 499,-63.24"/>
<text text-anchor="middle" x="526" y="-74.8" font-family="Times,serif" font-size="14.00">contains</text>
</g>
<!-- LocalStorage -->
<g id="node15" class="node">
<title>LocalStorage</title>
<path fill="#1a3d2a" stroke="#2e2e2e" d="M858.5,-47.98C858.5,-50.61 832.5,-52.75 800.5,-52.75 768.5,-52.75 742.5,-50.61 742.5,-47.98 742.5,-47.98 742.5,-5.02 742.5,-5.02 742.5,-2.39 768.5,-0.25 800.5,-0.25 832.5,-0.25 858.5,-2.39 858.5,-5.02 858.5,-5.02 858.5,-47.98 858.5,-47.98"/>
<path fill="none" stroke="#2e2e2e" d="M858.5,-47.98C858.5,-45.34 832.5,-43.2 800.5,-43.2 768.5,-43.2 742.5,-45.34 742.5,-47.98"/>
<text text-anchor="middle" x="800.5" y="-30.3" font-family="monospace" font-size="14.00" fill="#e8e8e8">LocalStorage</text>
<text text-anchor="middle" x="800.5" y="-15.3" font-family="monospace" font-size="14.00" fill="#e8e8e8">tp_progress</text>
</g>
<!-- Progress&#45;&gt;LocalStorage -->
<g id="edge18" class="edge">
<title>Progress&#45;&gt;LocalStorage</title>
<path fill="none" stroke="#000000" d="M574.05,-119.94C623.58,-99.72 686.86,-73.89 733.92,-54.68"/>
<polygon fill="#000000" stroke="#000000" points="735.48,-57.82 743.41,-50.8 732.83,-51.34 735.48,-57.82"/>
</g>
<!-- Session -->
<g id="node6" class="node">
<title>Session</title>
<path fill="#2a3d1a" stroke="#2e2e2e" d="M183,-407C183,-407 58,-407 58,-407 52,-407 46,-401 46,-395 46,-395 46,-321 46,-321 46,-315 52,-309 58,-309 58,-309 183,-309 183,-309 189,-309 195,-315 195,-321 195,-321 195,-395 195,-395 195,-401 189,-407 183,-407"/>
<text text-anchor="middle" x="120.5" y="-391.8" font-family="monospace" font-size="14.00" fill="#e8e8e8">Session (State)</text>
<text text-anchor="middle" x="120.5" y="-376.8" font-family="monospace" font-size="14.00" fill="#e8e8e8">{moveSequence[],</text>
<text text-anchor="middle" x="120.5" y="-361.8" font-family="monospace" font-size="14.00" fill="#e8e8e8"> currentStreak,</text>
<text text-anchor="middle" x="120.5" y="-346.8" font-family="monospace" font-size="14.00" fill="#e8e8e8"> startTime,</text>
<text text-anchor="middle" x="120.5" y="-331.8" font-family="monospace" font-size="14.00" fill="#e8e8e8"> options[],</text>
<text text-anchor="middle" x="120.5" y="-316.8" font-family="monospace" font-size="14.00" fill="#e8e8e8"> locked}</text>
</g>
<!-- Session&#45;&gt;Move -->
<g id="edge4" class="edge">
<title>Session&#45;&gt;Move</title>
<path fill="none" stroke="#000000" d="M109.71,-308.9C98.87,-247.6 90.17,-141.17 140.5,-71 146.96,-61.99 155.66,-54.84 165.28,-49.16"/>
<polygon fill="#000000" stroke="#000000" points="167.15,-52.13 174.35,-44.35 163.87,-45.95 167.15,-52.13"/>
<text text-anchor="middle" x="137" y="-223.8" font-family="Times,serif" font-size="14.00">evaluates</text>
</g>
<!-- App -->
<g id="node7" class="node">
<title>App</title>
<path fill="#3d1a1a" stroke="#2e2e2e" d="M433,-567C433,-567 308,-567 308,-567 302,-567 296,-561 296,-555 296,-555 296,-541 296,-541 296,-535 302,-529 308,-529 308,-529 433,-529 433,-529 439,-529 445,-535 445,-541 445,-541 445,-555 445,-555 445,-561 439,-567 433,-567"/>
<text text-anchor="middle" x="370.5" y="-551.8" font-family="monospace" font-size="14.00" fill="#e8e8e8">App (Main)</text>
<text text-anchor="middle" x="370.5" y="-536.8" font-family="monospace" font-size="14.00" fill="#e8e8e8">State Management</text>
</g>
<!-- App&#45;&gt;SERIES -->
<g id="edge20" class="edge">
<title>App&#45;&gt;SERIES</title>
<path fill="none" stroke="#000000" d="M295.85,-541.78C193.59,-532.54 22.5,-508.69 22.5,-452.5 22.5,-452.5 22.5,-452.5 22.5,-152 22.5,-118.18 32.14,-80.33 39.89,-55.35"/>
<polygon fill="#000000" stroke="#000000" points="43.24,-56.38 42.96,-45.79 36.57,-54.24 43.24,-56.38"/>
<text text-anchor="middle" x="60.5" y="-268.3" font-family="Times,serif" font-size="14.00">references</text>
</g>
<!-- App&#45;&gt;DECKS -->
<g id="edge19" class="edge">
<title>App&#45;&gt;DECKS</title>
<path fill="none" stroke="#000000" d="M342.08,-528.86C308.34,-505.42 253.82,-461.15 231.5,-407 199.5,-329.35 237.94,-228.87 260.44,-181.29"/>
<polygon fill="#000000" stroke="#000000" points="263.62,-182.76 264.83,-172.23 257.32,-179.7 263.62,-182.76"/>
<text text-anchor="middle" x="269.5" y="-354.3" font-family="Times,serif" font-size="14.00">references</text>
</g>
<!-- App&#45;&gt;Progress -->
<g id="edge5" class="edge">
<title>App&#45;&gt;Progress</title>
<path fill="none" stroke="#000000" d="M370.17,-528.88C369.97,-481.42 373.63,-350.41 416.5,-253 423.1,-238 432.56,-223.34 442.64,-210.1"/>
<polygon fill="#000000" stroke="#000000" points="445.55,-212.07 448.98,-202.05 440.05,-207.74 445.55,-212.07"/>
<text text-anchor="middle" x="428.5" y="-354.3" font-family="Times,serif" font-size="14.00">manages</text>
</g>
<!-- App&#45;&gt;Session -->
<g id="edge6" class="edge">
<title>App&#45;&gt;Session</title>
<path fill="none" stroke="#000000" d="M295.98,-544.87C236.87,-541.51 160.77,-532.92 139.5,-511 115.94,-486.72 111.1,-449.02 112.2,-417.25"/>
<polygon fill="#000000" stroke="#000000" points="115.7,-417.34 112.75,-407.17 108.71,-416.96 115.7,-417.34"/>
<text text-anchor="middle" x="171.5" y="-499.8" font-family="Times,serif" font-size="14.00">manages</text>
</g>
<!-- GlobalStyles -->
<g id="node8" class="node">
<title>GlobalStyles</title>
<path fill="#1a1a1a" stroke="#2e2e2e" d="M752.5,-478C752.5,-478 652.5,-478 652.5,-478 646.5,-478 640.5,-472 640.5,-466 640.5,-466 640.5,-437 640.5,-437 640.5,-431 646.5,-425 652.5,-425 652.5,-425 752.5,-425 752.5,-425 758.5,-425 764.5,-431 764.5,-437 764.5,-437 764.5,-466 764.5,-466 764.5,-472 758.5,-478 752.5,-478"/>
<text text-anchor="middle" x="702.5" y="-462.8" font-family="monospace" font-size="14.00" fill="#e8e8e8">GlobalStyles</text>
<text text-anchor="middle" x="702.5" y="-447.8" font-family="monospace" font-size="14.00" fill="#e8e8e8">CSS Variables</text>
<text text-anchor="middle" x="702.5" y="-432.8" font-family="monospace" font-size="14.00" fill="#e8e8e8">Theme</text>
</g>
<!-- App&#45;&gt;GlobalStyles -->
<g id="edge7" class="edge">
<title>App&#45;&gt;GlobalStyles</title>
<path fill="none" stroke="#000000" d="M444.92,-528.95C497.16,-515.87 568.48,-497.18 630.5,-478 630.6,-477.97 630.7,-477.94 630.8,-477.91"/>
<polygon fill="#000000" stroke="#000000" points="631.7,-481.3 640.16,-474.93 629.57,-474.63 631.7,-481.3"/>
</g>
<!-- ViewRouter -->
<g id="node9" class="node">
<title>ViewRouter</title>
<path fill="#2d2d2d" stroke="#2e2e2e" d="M610,-478C610,-478 411,-478 411,-478 405,-478 399,-472 399,-466 399,-466 399,-437 399,-437 399,-431 405,-425 411,-425 411,-425 610,-425 610,-425 616,-425 622,-431 622,-437 622,-437 622,-466 622,-466 622,-472 616,-478 610,-478"/>
<text text-anchor="middle" x="510.5" y="-462.8" font-family="monospace" font-size="14.00" fill="#e8e8e8">View Router</text>
<text text-anchor="middle" x="510.5" y="-447.8" font-family="monospace" font-size="14.00" fill="#e8e8e8">&#39;home&#39; | &#39;training&#39; |</text>
<text text-anchor="middle" x="510.5" y="-432.8" font-family="monospace" font-size="14.00" fill="#e8e8e8">&#39;completion&#39; | &#39;progress&#39;</text>
</g>
<!-- App&#45;&gt;ViewRouter -->
<g id="edge8" class="edge">
<title>App&#45;&gt;ViewRouter</title>
<path fill="none" stroke="#000000" d="M397.49,-528.78C416.29,-516.09 441.85,-498.84 463.9,-483.95"/>
<polygon fill="#000000" stroke="#000000" points="466.15,-486.66 472.48,-478.17 462.23,-480.86 466.15,-486.66"/>
</g>
<!-- App&#45;&gt;LocalStorage -->
<g id="edge17" class="edge">
<title>App&#45;&gt;LocalStorage</title>
<path fill="none" stroke="#000000" d="M445.11,-540.94C587.84,-528.33 885.5,-496.73 885.5,-452.5 885.5,-452.5 885.5,-452.5 885.5,-152 885.5,-116.1 861.1,-82.93 838.45,-59.87"/>
<polygon fill="#000000" stroke="#000000" points="840.78,-57.26 831.19,-52.75 835.87,-62.25 840.78,-57.26"/>
<text text-anchor="middle" x="919" y="-268.3" font-family="Times,serif" font-size="14.00">load/save</text>
</g>
<!-- HomeView -->
<g id="node10" class="node">
<title>HomeView</title>
<path fill="#1a1a1a" stroke="#2e2e2e" d="M357.5,-291C357.5,-291 257.5,-291 257.5,-291 251.5,-291 245.5,-285 245.5,-279 245.5,-279 245.5,-265 245.5,-265 245.5,-259 251.5,-253 257.5,-253 257.5,-253 357.5,-253 357.5,-253 363.5,-253 369.5,-259 369.5,-265 369.5,-265 369.5,-279 369.5,-279 369.5,-285 363.5,-291 357.5,-291"/>
<text text-anchor="middle" x="307.5" y="-275.8" font-family="monospace" font-size="14.00" fill="#e8e8e8">HomeView</text>
<text text-anchor="middle" x="307.5" y="-260.8" font-family="monospace" font-size="14.00" fill="#e8e8e8">Deck Selector</text>
</g>
<!-- GlobalStyles&#45;&gt;HomeView -->
<g id="edge21" class="edge">
<title>GlobalStyles&#45;&gt;HomeView</title>
<path fill="none" stroke="#000000" d="M640.2,-427.96C636.93,-426.93 633.68,-425.93 630.5,-425 596.77,-415.12 584.66,-423.26 553.5,-407 495.75,-376.86 501.84,-339.93 444.5,-309 424.51,-298.22 401.11,-290.53 379.37,-285.11"/>
<polygon fill="#000000" stroke="#000000" points="380.05,-281.67 369.51,-282.77 378.44,-288.48 380.05,-281.67"/>
</g>
<!-- TrainingView -->
<g id="node11" class="node">
<title>TrainingView</title>
<path fill="#1a1a1a" stroke="#2e2e2e" d="M837.5,-291C837.5,-291 745.5,-291 745.5,-291 739.5,-291 733.5,-285 733.5,-279 733.5,-279 733.5,-265 733.5,-265 733.5,-259 739.5,-253 745.5,-253 745.5,-253 837.5,-253 837.5,-253 843.5,-253 849.5,-259 849.5,-265 849.5,-265 849.5,-279 849.5,-279 849.5,-285 843.5,-291 837.5,-291"/>
<text text-anchor="middle" x="791.5" y="-275.8" font-family="monospace" font-size="14.00" fill="#e8e8e8">TrainingView</text>
<text text-anchor="middle" x="791.5" y="-260.8" font-family="monospace" font-size="14.00" fill="#e8e8e8">Move Quiz</text>
</g>
<!-- GlobalStyles&#45;&gt;TrainingView -->
<g id="edge22" class="edge">
<title>GlobalStyles&#45;&gt;TrainingView</title>
<path fill="none" stroke="#000000" d="M715.44,-424.69C732.07,-391.52 760.82,-334.19 777.8,-300.31"/>
<polygon fill="#000000" stroke="#000000" points="781.11,-301.52 782.47,-291.01 774.86,-298.38 781.11,-301.52"/>
</g>
<!-- CompletionView -->
<g id="node12" class="node">
<title>CompletionView</title>
<path fill="#1a1a1a" stroke="#2e2e2e" d="M703.5,-291C703.5,-291 595.5,-291 595.5,-291 589.5,-291 583.5,-285 583.5,-279 583.5,-279 583.5,-265 583.5,-265 583.5,-259 589.5,-253 595.5,-253 595.5,-253 703.5,-253 703.5,-253 709.5,-253 715.5,-259 715.5,-265 715.5,-265 715.5,-279 715.5,-279 715.5,-285 709.5,-291 703.5,-291"/>
<text text-anchor="middle" x="649.5" y="-275.8" font-family="monospace" font-size="14.00" fill="#e8e8e8">CompletionView</text>
<text text-anchor="middle" x="649.5" y="-260.8" font-family="monospace" font-size="14.00" fill="#e8e8e8">Results</text>
</g>
<!-- GlobalStyles&#45;&gt;CompletionView -->
<g id="edge23" class="edge">
<title>GlobalStyles&#45;&gt;CompletionView</title>
<path fill="none" stroke="#000000" d="M694.79,-424.69C684.93,-391.67 667.92,-334.68 657.79,-300.75"/>
<polygon fill="#000000" stroke="#000000" points="661.09,-299.59 654.88,-291.01 654.39,-301.6 661.09,-299.59"/>
</g>
<!-- ProgressView -->
<g id="node13" class="node">
<title>ProgressView</title>
<path fill="#1a1a1a" stroke="#2e2e2e" d="M553.5,-291C553.5,-291 437.5,-291 437.5,-291 431.5,-291 425.5,-285 425.5,-279 425.5,-279 425.5,-265 425.5,-265 425.5,-259 431.5,-253 437.5,-253 437.5,-253 553.5,-253 553.5,-253 559.5,-253 565.5,-259 565.5,-265 565.5,-265 565.5,-279 565.5,-279 565.5,-285 559.5,-291 553.5,-291"/>
<text text-anchor="middle" x="495.5" y="-275.8" font-family="monospace" font-size="14.00" fill="#e8e8e8">ProgressView</text>
<text text-anchor="middle" x="495.5" y="-260.8" font-family="monospace" font-size="14.00" fill="#e8e8e8">Stats &amp; History</text>
</g>
<!-- GlobalStyles&#45;&gt;ProgressView -->
<g id="edge24" class="edge">
<title>GlobalStyles&#45;&gt;ProgressView</title>
<path fill="none" stroke="#000000" d="M675.24,-424.75C669.08,-418.92 662.56,-412.75 656.5,-407 610.66,-363.51 603.49,-347.64 553.5,-309 548.02,-304.76 542.02,-300.58 536.02,-296.66"/>
<polygon fill="#000000" stroke="#000000" points="537.61,-293.52 527.29,-291.11 533.85,-299.43 537.61,-293.52"/>
</g>
<!-- ViewRouter&#45;&gt;HomeView -->
<g id="edge9" class="edge">
<title>ViewRouter&#45;&gt;HomeView</title>
<path fill="none" stroke="#000000" d="M398.64,-433.64C382.43,-427.33 367.02,-418.72 354.5,-407 324.72,-379.11 313.8,-331.28 309.8,-300.95"/>
<polygon fill="#000000" stroke="#000000" points="313.28,-300.54 308.66,-291.01 306.33,-301.34 313.28,-300.54"/>
</g>
<!-- ViewRouter&#45;&gt;TrainingView -->
<g id="edge10" class="edge">
<title>ViewRouter&#45;&gt;TrainingView</title>
<path fill="none" stroke="#000000" d="M560.22,-424.91C570.4,-419.27 580.92,-413.14 590.5,-407 651.71,-367.75 659.84,-347.54 721.5,-309 728.75,-304.47 736.63,-300.01 744.41,-295.84"/>
<polygon fill="#000000" stroke="#000000" points="746.2,-298.85 753.44,-291.11 742.96,-292.65 746.2,-298.85"/>
</g>
<!-- ViewRouter&#45;&gt;CompletionView -->
<g id="edge11" class="edge">
<title>ViewRouter&#45;&gt;CompletionView</title>
<path fill="none" stroke="#000000" d="M527.41,-424.81C546.94,-395.74 580.63,-347.46 613.5,-309 616.49,-305.5 619.75,-301.94 623.05,-298.49"/>
<polygon fill="#000000" stroke="#000000" points="625.74,-300.74 630.24,-291.15 620.74,-295.84 625.74,-300.74"/>
</g>
<!-- ViewRouter&#45;&gt;ProgressView -->
<g id="edge12" class="edge">
<title>ViewRouter&#45;&gt;ProgressView</title>
<path fill="none" stroke="#000000" d="M508.32,-424.69C505.54,-391.81 500.75,-335.18 497.88,-301.19"/>
<polygon fill="#000000" stroke="#000000" points="501.35,-300.68 497.02,-291.01 494.38,-301.27 501.35,-300.68"/>
</g>
<!-- HomeView&#45;&gt;DECKS -->
<g id="edge16" class="edge">
<title>HomeView&#45;&gt;DECKS</title>
<path fill="none" stroke="#000000" d="M302.42,-252.98C297.08,-234.05 288.61,-204.04 282.4,-182.02"/>
<polygon fill="#000000" stroke="#000000" points="285.73,-180.91 279.64,-172.24 278.99,-182.81 285.73,-180.91"/>
</g>
<!-- MoveLabel -->
<g id="node14" class="node">
<title>MoveLabel</title>
<path fill="#1a1a1a" stroke="#2e2e2e" d="M783.5,-172C783.5,-172 667.5,-172 667.5,-172 661.5,-172 655.5,-166 655.5,-160 655.5,-160 655.5,-146 655.5,-146 655.5,-140 661.5,-134 667.5,-134 667.5,-134 783.5,-134 783.5,-134 789.5,-134 795.5,-140 795.5,-146 795.5,-146 795.5,-160 795.5,-160 795.5,-166 789.5,-172 783.5,-172"/>
<text text-anchor="middle" x="725.5" y="-156.8" font-family="monospace" font-size="14.00" fill="#e8e8e8">MoveLabel</text>
<text text-anchor="middle" x="725.5" y="-141.8" font-family="monospace" font-size="14.00" fill="#e8e8e8">(Sub&#45;component)</text>
</g>
<!-- TrainingView&#45;&gt;MoveLabel -->
<g id="edge13" class="edge">
<title>TrainingView&#45;&gt;MoveLabel</title>
<path fill="none" stroke="#000000" d="M781.33,-252.98C770.51,-233.79 753.27,-203.22 740.8,-181.13"/>
<polygon fill="#000000" stroke="#000000" points="743.75,-179.23 735.79,-172.24 737.65,-182.67 743.75,-179.23"/>
</g>
<!-- CompletionView&#45;&gt;MoveLabel -->
<g id="edge14" class="edge">
<title>CompletionView&#45;&gt;MoveLabel</title>
<path fill="none" stroke="#000000" d="M661.21,-252.98C673.72,-233.71 693.7,-202.95 708.07,-180.83"/>
<polygon fill="#000000" stroke="#000000" points="711.14,-182.53 713.65,-172.24 705.27,-178.72 711.14,-182.53"/>
</g>
<!-- ProgressView&#45;&gt;Progress -->
<g id="edge15" class="edge">
<title>ProgressView&#45;&gt;Progress</title>
<path fill="none" stroke="#000000" d="M495.5,-252.98C495.5,-241.93 495.5,-227.12 495.5,-212.32"/>
<polygon fill="#000000" stroke="#000000" points="499,-212.12 495.5,-202.12 492,-212.12 499,-212.12"/>
</g>
</g>
</svg>
