<?xml version="1.0" encoding="UTF-8" standalone="no"?>
<!DOCTYPE svg PUBLIC "-//W3C//DTD SVG 1.1//EN"
 "http://www.w3.org/Graphics/SVG/1.1/DTD/svg11.dtd">
<!-- Generated by graphviz version 2.43.0 (0)
 -->
<!-- Title: DeckRenderingSystem Pages: 1 -->
<svg width="1563pt" height="767pt"
 viewBox="0.00 0.00 1563.00 766.74" xmlns="http://www.w3.org/2000/svg" xmlns:xlink="http://www.w3.org/1999/xlink">
<g id="graph0" class="graph" transform="scale(1 1) rotate(0) translate(4 762.74)">
<title>DeckRenderingSystem</title>
<polygon fill="#0f0f0f" stroke="transparent" points="-4,4 -4,-762.74 1559,-762.74 1559,4 -4,4"/>
<g id="clust1" class="cluster">
<title>cluster_data</title>
<polygon fill="#0f0f0f" stroke="#2e2e2e" points="8,-8 8,-300.5 523,-300.5 523,-8 8,-8"/>
<text text-anchor="middle" x="265.5" y="-285.3" font-family="Times,serif" font-size="14.00">Data Layer</text>
</g>
<g id="clust2" class="cluster">
<title>cluster_app</title>
<polygon fill="#0f0f0f" stroke="#2e2e2e" points="511,-456 511,-647.74 901,-647.74 901,-456 511,-456"/>
<text text-anchor="middle" x="706" y="-632.54" font-family="Times,serif" font-size="14.00">App State Management</text>
</g>
<g id="clust3" class="cluster">
<title>cluster_screens</title>
<polygon fill="#0f0f0f" stroke="#2e2e2e" points="508,-336 508,-428 1157,-428 1157,-336 508,-336"/>
<text text-anchor="middle" x="832.5" y="-412.8" font-family="Times,serif" font-size="14.00">Screen Components</text>
</g>
<g id="clust4" class="cluster">
<title>cluster_subcomp</title>
<polygon fill="#0f0f0f" stroke="#2e2e2e" points="531,-216 531,-308 1229,-308 1229,-216 531,-216"/>
<text text-anchor="middle" x="880" y="-292.8" font-family="Times,serif" font-size="14.00">Sub&#45;Components</text>
</g>
<g id="clust5" class="cluster">
<title>cluster_flow</title>
<polygon fill="#0f0f0f" stroke="#2e2e2e" points="1165,-343.5 1165,-750.74 1547,-750.74 1547,-343.5 1165,-343.5"/>
<text text-anchor="middle" x="1356" y="-735.54" font-family="Times,serif" font-size="14.00">Training Flow Example</text>
</g>
<!-- DECKS -->
<g id="node1" class="node">
<title>DECKS</title>
<polygon fill="#1a1a1a" stroke="#2e2e2e" points="457.5,-269.5 300.5,-269.5 300.5,-231.5 457.5,-231.5 457.5,-269.5"/>
<text text-anchor="middle" x="379" y="-254.3" font-family="monospace" font-size="14.00" fill="#e8e8e8">DECKS</text>
<text text-anchor="middle" x="379" y="-239.3" font-family="monospace" font-size="14.00" fill="#e8e8e8">(32 Deck Objects)</text>
</g>
<!-- SERIES -->
<g id="node2" class="node">
<title>SERIES</title>
<polygon fill="#1a1a1a" stroke="#2e2e2e" points="514.5,-160.5 357.5,-160.5 357.5,-122.5 514.5,-122.5 514.5,-160.5"/>
<text text-anchor="middle" x="436" y="-145.3" font-family="monospace" font-size="14.00" fill="#e8e8e8">SERIES</text>
<text text-anchor="middle" x="436" y="-130.3" font-family="monospace" font-size="14.00" fill="#e8e8e8">(8 Series Groups)</text>
</g>
<!-- DECKS&#45;&gt;SERIES -->
<g id="edge1" class="edge">
<title>DECKS&#45;&gt;SERIES</title>
<path fill="none" stroke="#000000" d="M388.67,-231.35C397.68,-214.44 411.23,-189 421.52,-169.67"/>
<polygon fill="#000000" stroke="#000000" points="424.67,-171.21 426.28,-160.74 418.49,-167.92 424.67,-171.21"/>
<text text-anchor="middle" x="439.5" y="-198.8" font-family="monospace" font-size="9.00">grouped by</text>
<text text-anchor="middle" x="439.5" y="-188.8" font-family="monospace" font-size="9.00">series.id</text>
</g>
<!-- PROGRESS -->
<g id="node3" class="node">
<title>PROGRESS</title>
<polygon fill="#1a1a1a" stroke="#2e2e2e" points="339.5,-168 100.5,-168 100.5,-115 339.5,-115 339.5,-168"/>
<text text-anchor="middle" x="220" y="-152.8" font-family="monospace" font-size="14.00" fill="#e8e8e8">Progress State</text>
<text text-anchor="middle" x="220" y="-137.8" font-family="monospace" font-size="14.00" fill="#e8e8e8">(currentStreak, bestStreak,</text>
<text text-anchor="middle" x="220" y="-122.8" font-family="monospace" font-size="14.00" fill="#e8e8e8">attempts[])</text>
</g>
<!-- DECKS&#45;&gt;PROGRESS -->
<g id="edge4" class="edge">
<title>DECKS&#45;&gt;PROGRESS</title>
<path fill="none" stroke="#000000" d="M352.03,-231.35C328.66,-215.62 294.34,-192.53 266.55,-173.82"/>
<polygon fill="#000000" stroke="#000000" points="268.4,-170.85 258.15,-168.17 264.49,-176.66 268.4,-170.85"/>
<text text-anchor="middle" x="346" y="-193.8" font-family="monospace" font-size="9.00">deck metrics</text>
</g>
<!-- SESSION -->
<g id="node4" class="node">
<title>SESSION</title>
<polygon fill="#1a1a1a" stroke="#2e2e2e" points="467,-69 261,-69 261,-16 467,-16 467,-69"/>
<text text-anchor="middle" x="364" y="-53.8" font-family="monospace" font-size="14.00" fill="#e8e8e8">Session State</text>
<text text-anchor="middle" x="364" y="-38.8" font-family="monospace" font-size="14.00" fill="#e8e8e8">(moveSequence, options,</text>
<text text-anchor="middle" x="364" y="-23.8" font-family="monospace" font-size="14.00" fill="#e8e8e8">locked, finalAttempt)</text>
</g>
<!-- DECKS&#45;&gt;SESSION -->
<g id="edge2" class="edge">
<title>DECKS&#45;&gt;SESSION</title>
<path fill="none" stroke="#000000" d="M300.22,-241.52C211.15,-230.68 74.4,-207.93 43,-168 -18.49,-89.82 135.58,-60.67 250.96,-49.85"/>
<polygon fill="#000000" stroke="#000000" points="251.3,-53.33 260.95,-48.95 250.67,-46.36 251.3,-53.33"/>
<text text-anchor="middle" x="67" y="-139.3" font-family="monospace" font-size="9.00">move data</text>
</g>
<!-- PROGRESS&#45;&gt;SESSION -->
<g id="edge3" class="edge">
<title>PROGRESS&#45;&gt;SESSION</title>
<path fill="none" stroke="#000000" d="M258.21,-114.76C276.5,-102.44 298.55,-87.58 317.78,-74.63"/>
<polygon fill="#000000" stroke="#000000" points="319.77,-77.51 326.11,-69.02 315.86,-71.71 319.77,-77.51"/>
<text text-anchor="middle" x="336.5" y="-89.8" font-family="monospace" font-size="9.00">streak tracking</text>
</g>
<!-- APP -->
<g id="node5" class="node">
<title>APP</title>
<ellipse fill="#1a1a1a" stroke="#2e2e2e" cx="660" cy="-589.87" rx="87.86" ry="26.74"/>
<text text-anchor="middle" x="660" y="-593.67" font-family="monospace" font-size="14.00" fill="#e8e8e8">App Component</text>
<text text-anchor="middle" x="660" y="-578.67" font-family="monospace" font-size="14.00" fill="#e8e8e8">(Main Router)</text>
</g>
<!-- VIEW -->
<g id="node6" class="node">
<title>VIEW</title>
<polygon fill="#1a1a1a" stroke="#2e2e2e" points="893,-517 711,-517 711,-464 893,-464 893,-517"/>
<text text-anchor="middle" x="802" y="-501.8" font-family="monospace" font-size="14.00" fill="#e8e8e8">view State</text>
<text text-anchor="middle" x="802" y="-486.8" font-family="monospace" font-size="14.00" fill="#e8e8e8">(home|training|</text>
<text text-anchor="middle" x="802" y="-471.8" font-family="monospace" font-size="14.00" fill="#e8e8e8">completion|progress)</text>
</g>
<!-- APP&#45;&gt;VIEW -->
<g id="edge5" class="edge">
<title>APP&#45;&gt;VIEW</title>
<path fill="none" stroke="#000000" d="M694.74,-565.05C713.27,-552.34 736.32,-536.54 756.29,-522.84"/>
<polygon fill="#000000" stroke="#000000" points="758.37,-525.66 764.64,-517.12 754.41,-519.89 758.37,-525.66"/>
<text text-anchor="middle" x="769.5" y="-537.8" font-family="monospace" font-size="9.00">controls view</text>
</g>
<!-- CURRENT_DECK -->
<g id="node7" class="node">
<title>CURRENT_DECK</title>
<polygon fill="#1a1a1a" stroke="#2e2e2e" points="692.5,-508.5 519.5,-508.5 519.5,-472.5 692.5,-472.5 692.5,-508.5"/>
<text text-anchor="middle" x="606" y="-486.8" font-family="monospace" font-size="14.00" fill="#e8e8e8">currentDeckId State</text>
</g>
<!-- APP&#45;&gt;CURRENT_DECK -->
<g id="edge6" class="edge">
<title>APP&#45;&gt;CURRENT_DECK</title>
<path fill="none" stroke="#000000" d="M645.81,-563.29C637.97,-549.14 628.25,-531.61 620.37,-517.42"/>
<polygon fill="#000000" stroke="#000000" points="623.42,-515.69 615.5,-508.64 617.29,-519.08 623.42,-515.69"/>
<text text-anchor="middle" x="677.5" y="-537.8" font-family="monospace" font-size="9.00">tracks selection</text>
</g>
<!-- HOME -->
<g id="node8" class="node">
<title>HOME</title>
<polygon fill="#1a1a1a" stroke="#c0392b" points="648,-397 516,-397 516,-393 512,-393 512,-389 516,-389 516,-352 512,-352 512,-348 516,-348 516,-344 648,-344 648,-397"/>
<polyline fill="none" stroke="#c0392b" points="516,-393 520,-393 520,-389 516,-389 "/>
<polyline fill="none" stroke="#c0392b" points="516,-352 520,-352 520,-348 516,-348 "/>
<text text-anchor="middle" x="582" y="-381.8" font-family="monospace" font-size="14.00" fill="#e8e8e8">HomeScreen</text>
<text text-anchor="middle" x="582" y="-366.8" font-family="monospace" font-size="14.00" fill="#e8e8e8">→ SeriesGroups</text>
<text text-anchor="middle" x="582" y="-351.8" font-family="monospace" font-size="14.00" fill="#e8e8e8">→ DeckRows</text>
</g>
<!-- VIEW&#45;&gt;HOME -->
<g id="edge7" class="edge">
<title>VIEW&#45;&gt;HOME</title>
<path fill="none" stroke="#000000" d="M724.83,-463.92C696.5,-454.52 671.18,-446.1 671,-446 650.73,-434.7 630.69,-418.49 614.77,-404.07"/>
<polygon fill="#000000" stroke="#000000" points="617.03,-401.39 607.31,-397.17 612.27,-406.53 617.03,-401.39"/>
<text text-anchor="middle" x="710.5" y="-438.8" font-family="monospace" font-size="9.00">view === &#39;home&#39;</text>
</g>
<!-- TRAINING -->
<g id="node9" class="node">
<title>TRAINING</title>
<polygon fill="#1a1a1a" stroke="#c0392b" points="798,-397 666,-397 666,-393 662,-393 662,-389 666,-389 666,-352 662,-352 662,-348 666,-348 666,-344 798,-344 798,-397"/>
<polyline fill="none" stroke="#c0392b" points="666,-393 670,-393 670,-389 666,-389 "/>
<polyline fill="none" stroke="#c0392b" points="666,-352 670,-352 670,-348 666,-348 "/>
<text text-anchor="middle" x="732" y="-381.8" font-family="monospace" font-size="14.00" fill="#e8e8e8">TrainingScreen</text>
<text text-anchor="middle" x="732" y="-366.8" font-family="monospace" font-size="14.00" fill="#e8e8e8">→ MoveSequence</text>
<text text-anchor="middle" x="732" y="-351.8" font-family="monospace" font-size="14.00" fill="#e8e8e8">→ Options</text>
</g>
<!-- VIEW&#45;&gt;TRAINING -->
<g id="edge8" class="edge">
<title>VIEW&#45;&gt;TRAINING</title>
<path fill="none" stroke="#000000" d="M773.92,-463.82C768.85,-458.28 763.93,-452.21 760,-446 752.41,-433.99 746.4,-419.62 741.93,-406.71"/>
<polygon fill="#000000" stroke="#000000" points="745.25,-405.6 738.8,-397.19 738.6,-407.78 745.25,-405.6"/>
<text text-anchor="middle" x="810" y="-438.8" font-family="monospace" font-size="9.00">view === &#39;training&#39;</text>
</g>
<!-- COMPLETION -->
<g id="node10" class="node">
<title>COMPLETION</title>
<polygon fill="#1a1a1a" stroke="#c0392b" points="965.5,-397 816.5,-397 816.5,-393 812.5,-393 812.5,-389 816.5,-389 816.5,-352 812.5,-352 812.5,-348 816.5,-348 816.5,-344 965.5,-344 965.5,-397"/>
<polyline fill="none" stroke="#c0392b" points="816.5,-393 820.5,-393 820.5,-389 816.5,-389 "/>
<polyline fill="none" stroke="#c0392b" points="816.5,-352 820.5,-352 820.5,-348 816.5,-348 "/>
<text text-anchor="middle" x="891" y="-381.8" font-family="monospace" font-size="14.00" fill="#e8e8e8">CompletionScreen</text>
<text text-anchor="middle" x="891" y="-366.8" font-family="monospace" font-size="14.00" fill="#e8e8e8">→ Results</text>
<text text-anchor="middle" x="891" y="-351.8" font-family="monospace" font-size="14.00" fill="#e8e8e8">→ NextDeck</text>
</g>
<!-- VIEW&#45;&gt;COMPLETION -->
<g id="edge9" class="edge">
<title>VIEW&#45;&gt;COMPLETION</title>
<path fill="none" stroke="#000000" d="M842.3,-463.78C848.77,-458.44 854.98,-452.46 860,-446 868.98,-434.45 875.79,-419.94 880.7,-406.79"/>
<polygon fill="#000000" stroke="#000000" points="884.1,-407.67 884.1,-397.08 877.5,-405.36 884.1,-407.67"/>
<text text-anchor="middle" x="921.5" y="-438.8" font-family="monospace" font-size="9.00">view === &#39;completion&#39;</text>
</g>
<!-- PROGRESS_SCREEN -->
<g id="node11" class="node">
<title>PROGRESS_SCREEN</title>
<polygon fill="#1a1a1a" stroke="#c0392b" points="1148.5,-397 983.5,-397 983.5,-393 979.5,-393 979.5,-389 983.5,-389 983.5,-352 979.5,-352 979.5,-348 983.5,-348 983.5,-344 1148.5,-344 1148.5,-397"/>
<polyline fill="none" stroke="#c0392b" points="983.5,-393 987.5,-393 987.5,-389 983.5,-389 "/>
<polyline fill="none" stroke="#c0392b" points="983.5,-352 987.5,-352 987.5,-348 983.5,-348 "/>
<text text-anchor="middle" x="1066" y="-381.8" font-family="monospace" font-size="14.00" fill="#e8e8e8">ProgressScreen</text>
<text text-anchor="middle" x="1066" y="-366.8" font-family="monospace" font-size="14.00" fill="#e8e8e8">→ AllDecksOverview</text>
<text text-anchor="middle" x="1066" y="-351.8" font-family="monospace" font-size="14.00" fill="#e8e8e8">→ DeckProgress</text>
</g>
<!-- VIEW&#45;&gt;PROGRESS_SCREEN -->
<g id="edge10" class="edge">
<title>VIEW&#45;&gt;PROGRESS_SCREEN</title>
<path fill="none" stroke="#000000" d="M893.35,-476.14C922.44,-469.6 954.04,-460 981,-446 1001.35,-435.43 1020.84,-418.98 1036.01,-404.23"/>
<polygon fill="#000000" stroke="#000000" points="1038.49,-406.7 1043.09,-397.15 1033.54,-401.74 1038.49,-406.7"/>
<text text-anchor="middle" x="1046" y="-438.8" font-family="monospace" font-size="9.00">view === &#39;progress&#39;</text>
</g>
<!-- HOME&#45;&gt;DECKS -->
<g id="edge11" class="edge">
<title>HOME&#45;&gt;DECKS</title>
<path fill="none" stroke="#000000" d="M515.96,-353.36C495.23,-346.67 472.85,-337.68 454,-326 433.28,-313.16 413.86,-293.58 399.98,-277.72"/>
<polygon fill="#000000" stroke="#000000" points="402.4,-275.16 393.25,-269.82 397.07,-279.7 402.4,-275.16"/>
<text text-anchor="middle" x="467.5" y="-318.8" font-family="monospace" font-size="9.00">reads</text>
</g>
<!-- HOME&#45;&gt;SERIES -->
<g id="edge12" class="edge">
<title>HOME&#45;&gt;SERIES</title>
<path fill="none" stroke="#000000" d="M632.33,-343.92C640.41,-340.73 648.81,-337.92 657,-336 688.2,-328.71 1210.99,-331.28 1233,-308 1261.09,-278.29 1260.55,-246.21 1233,-216 1186,-164.47 722.57,-148.56 524.75,-144.09"/>
<polygon fill="#000000" stroke="#000000" points="524.75,-140.59 514.68,-143.87 524.6,-147.59 524.75,-140.59"/>
<text text-anchor="middle" x="1266.5" y="-248.3" font-family="monospace" font-size="9.00">reads</text>
</g>
<!-- HOME&#45;&gt;PROGRESS -->
<g id="edge13" class="edge">
<title>HOME&#45;&gt;PROGRESS</title>
<path fill="none" stroke="#000000" d="M515.67,-364.86C433.43,-357.75 299.71,-341.33 264,-308 228.34,-274.71 220.32,-216.11 219.15,-178.32"/>
<polygon fill="#000000" stroke="#000000" points="222.65,-178.19 218.99,-168.25 215.65,-178.3 222.65,-178.19"/>
<text text-anchor="middle" x="277.5" y="-248.3" font-family="monospace" font-size="9.00">reads</text>
</g>
<!-- SERIES_GROUP -->
<g id="node13" class="node">
<title>SERIES_GROUP</title>
<polygon fill="#1a1a1a" stroke="#2e2e2e" points="655,-269.5 539,-269.5 539,-231.5 655,-231.5 655,-269.5"/>
<text text-anchor="middle" x="597" y="-254.3" font-family="monospace" font-size="14.00" fill="#e8e8e8">SeriesGroup</text>
<text text-anchor="middle" x="597" y="-239.3" font-family="monospace" font-size="14.00" fill="#e8e8e8">(Table Rows)</text>
</g>
<!-- HOME&#45;&gt;SERIES_GROUP -->
<g id="edge14" class="edge">
<title>HOME&#45;&gt;SERIES_GROUP</title>
<path fill="none" stroke="#000000" d="M581.47,-343.85C581.55,-335 581.94,-325.04 583,-316 584.41,-303.89 587.07,-290.7 589.69,-279.42"/>
<polygon fill="#000000" stroke="#000000" points="593.1,-280.23 592.06,-269.69 586.3,-278.58 593.1,-280.23"/>
<text text-anchor="middle" x="601.5" y="-318.8" font-family="monospace" font-size="9.00">renders</text>
</g>
<!-- DECK_ROW -->
<g id="node14" class="node">
<title>DECK_ROW</title>
<polygon fill="#1a1a1a" stroke="#2e2e2e" points="846.5,-277 673.5,-277 673.5,-224 846.5,-224 846.5,-277"/>
<text text-anchor="middle" x="760" y="-261.8" font-family="monospace" font-size="14.00" fill="#e8e8e8">DeckRow</text>
<text text-anchor="middle" x="760" y="-246.8" font-family="monospace" font-size="14.00" fill="#e8e8e8">(ID, Name, Progress</text>
<text text-anchor="middle" x="760" y="-231.8" font-family="monospace" font-size="14.00" fill="#e8e8e8">Bar, Train Button)</text>
</g>
<!-- HOME&#45;&gt;DECK_ROW -->
<g id="edge15" class="edge">
<title>HOME&#45;&gt;DECK_ROW</title>
<path fill="none" stroke="#000000" d="M607.11,-343.85C617.55,-334.2 630.21,-323.7 643,-316 651.56,-310.85 655,-312.33 664,-308 679.59,-300.51 696,-291.36 710.76,-282.62"/>
<polygon fill="#000000" stroke="#000000" points="712.94,-285.39 719.72,-277.25 709.34,-279.39 712.94,-285.39"/>
<text text-anchor="middle" x="661.5" y="-318.8" font-family="monospace" font-size="9.00">renders</text>
</g>
<!-- TRAINING&#45;&gt;DECKS -->
<g id="edge16" class="edge">
<title>TRAINING&#45;&gt;DECKS</title>
<path fill="none" stroke="#000000" d="M680.75,-344C672.94,-340.88 664.86,-338.07 657,-336 611.67,-324.06 598.29,-333.38 552,-326 516.01,-320.26 505.8,-321.64 472,-308 451.11,-299.57 429.51,-286.74 412.39,-275.43"/>
<polygon fill="#000000" stroke="#000000" points="414.12,-272.38 403.87,-269.69 410.21,-278.18 414.12,-272.38"/>
<text text-anchor="middle" x="565.5" y="-318.8" font-family="monospace" font-size="9.00">reads</text>
</g>
<!-- TRAINING&#45;&gt;SESSION -->
<g id="edge17" class="edge">
<title>TRAINING&#45;&gt;SESSION</title>
<path fill="none" stroke="#000000" d="M783.01,-343.86C791.19,-340.68 799.7,-337.88 808,-336 877.38,-320.25 1057.04,-331.19 1128,-326 1136.7,-325.36 1278.2,-314.51 1284,-308 1311.21,-277.48 1307.91,-249.17 1284,-216 1191,-86.98 702.35,-54.41 477.47,-46.23"/>
<polygon fill="#000000" stroke="#000000" points="477.4,-42.72 467.29,-45.87 477.16,-49.72 477.4,-42.72"/>
<text text-anchor="middle" x="1287.5" y="-193.8" font-family="monospace" font-size="9.00">reads</text>
</g>
<!-- MOVE_LABEL -->
<g id="node12" class="node">
<title>MOVE_LABEL</title>
<polygon fill="#1a1a1a" stroke="#2e2e2e" points="1029.5,-269.5 864.5,-269.5 864.5,-231.5 1029.5,-231.5 1029.5,-269.5"/>
<text text-anchor="middle" x="947" y="-254.3" font-family="monospace" font-size="14.00" fill="#e8e8e8">MoveLabel</text>
<text text-anchor="middle" x="947" y="-239.3" font-family="monospace" font-size="14.00" fill="#e8e8e8">(Render Move Text)</text>
</g>
<!-- TRAINING&#45;&gt;MOVE_LABEL -->
<g id="edge18" class="edge">
<title>TRAINING&#45;&gt;MOVE_LABEL</title>
<path fill="none" stroke="#000000" d="M705.47,-343.74C698.8,-334.29 695.44,-323.97 703,-316 714.72,-303.65 839.76,-313.09 856,-308 877.91,-301.13 899.85,-287.74 916.7,-275.72"/>
<polygon fill="#000000" stroke="#000000" points="919.04,-278.35 925.02,-269.6 914.89,-272.71 919.04,-278.35"/>
<text text-anchor="middle" x="721.5" y="-318.8" font-family="monospace" font-size="9.00">renders</text>
</g>
<!-- COMPLETION&#45;&gt;DECKS -->
<g id="edge19" class="edge">
<title>COMPLETION&#45;&gt;DECKS</title>
<path fill="none" stroke="#000000" d="M829.92,-343.86C822.27,-341.03 814.5,-338.33 807,-336 787.85,-330.05 782.06,-332.25 763,-326 752.41,-322.53 750.88,-318.43 740,-316 681.85,-303 529.13,-324.92 472,-308 449.63,-301.38 427.21,-288 409.98,-275.92"/>
<polygon fill="#000000" stroke="#000000" points="411.63,-272.79 401.48,-269.77 407.53,-278.47 411.63,-272.79"/>
<text text-anchor="middle" x="776.5" y="-318.8" font-family="monospace" font-size="9.00">reads</text>
</g>
<!-- COMPLETION&#45;&gt;PROGRESS -->
<g id="edge20" class="edge">
<title>COMPLETION&#45;&gt;PROGRESS</title>
<path fill="none" stroke="#000000" d="M873.68,-343.84C864.96,-333.17 853.38,-321.92 840,-316 822.72,-308.36 514.73,-319.83 500,-308 456.46,-273.04 511.31,-223.57 470,-186 451.47,-169.14 387.44,-171.97 349.49,-167.87"/>
<polygon fill="#000000" stroke="#000000" points="349.92,-164.4 339.54,-166.51 348.97,-171.33 349.92,-164.4"/>
<text text-anchor="middle" x="513.5" y="-248.3" font-family="monospace" font-size="9.00">reads</text>
</g>
<!-- COMPLETION&#45;&gt;SESSION -->
<g id="edge21" class="edge">
<title>COMPLETION&#45;&gt;SESSION</title>
<path fill="none" stroke="#000000" d="M948.07,-343.96C956.94,-340.8 966.11,-337.99 975,-336 1014.15,-327.21 1307.94,-337.62 1335,-308 1362.58,-277.81 1350.65,-253.78 1335,-216 1311.29,-158.77 1204.24,-127.07 1167,-115 1041.84,-74.42 667.41,-54.88 477.35,-47.36"/>
<polygon fill="#000000" stroke="#000000" points="477.45,-43.87 467.33,-46.97 477.18,-50.86 477.45,-43.87"/>
<text text-anchor="middle" x="1342.5" y="-193.8" font-family="monospace" font-size="9.00">reads</text>
</g>
<!-- COMPLETION&#45;&gt;MOVE_LABEL -->
<g id="edge22" class="edge">
<title>COMPLETION&#45;&gt;MOVE_LABEL</title>
<path fill="none" stroke="#000000" d="M903.15,-343.9C912.27,-324.67 924.74,-298.4 934.05,-278.78"/>
<polygon fill="#000000" stroke="#000000" points="937.22,-280.28 938.34,-269.75 930.89,-277.28 937.22,-280.28"/>
<text text-anchor="middle" x="933.5" y="-318.8" font-family="monospace" font-size="9.00">renders</text>
</g>
<!-- PROGRESS_SCREEN&#45;&gt;DECKS -->
<g id="edge23" class="edge">
<title>PROGRESS_SCREEN&#45;&gt;DECKS</title>
<path fill="none" stroke="#000000" d="M1002.47,-343.87C993.36,-340.85 984.02,-338.11 975,-336 934.09,-326.45 922.77,-330.52 881,-326 840.55,-321.63 830.6,-318.74 790,-316 754.74,-313.62 505.91,-317.96 472,-308 449.46,-301.38 426.88,-287.87 409.61,-275.71"/>
<polygon fill="#000000" stroke="#000000" points="411.24,-272.57 401.1,-269.53 407.13,-278.24 411.24,-272.57"/>
<text text-anchor="middle" x="894.5" y="-318.8" font-family="monospace" font-size="9.00">reads</text>
</g>
<!-- PROGRESS_SCREEN&#45;&gt;PROGRESS -->
<g id="edge24" class="edge">
<title>PROGRESS_SCREEN&#45;&gt;PROGRESS</title>
<path fill="none" stroke="#000000" d="M1135.48,-343.97C1144.03,-341.13 1152.68,-338.4 1161,-336 1214.86,-320.43 1249.03,-351.82 1284,-308 1309.5,-276.04 1312.16,-245.64 1284,-216 1214.17,-142.49 490.99,-178.83 349.98,-167.91"/>
<polygon fill="#000000" stroke="#000000" points="350.12,-164.41 339.83,-166.92 349.44,-171.38 350.12,-164.41"/>
<text text-anchor="middle" x="1317.5" y="-248.3" font-family="monospace" font-size="9.00">reads</text>
</g>
<!-- ATTEMPT_HISTORY -->
<g id="node15" class="node">
<title>ATTEMPT_HISTORY</title>
<polygon fill="#1a1a1a" stroke="#2e2e2e" points="1220.5,-269.5 1047.5,-269.5 1047.5,-231.5 1220.5,-231.5 1220.5,-269.5"/>
<text text-anchor="middle" x="1134" y="-254.3" font-family="monospace" font-size="14.00" fill="#e8e8e8">AttempptHistory</text>
<text text-anchor="middle" x="1134" y="-239.3" font-family="monospace" font-size="14.00" fill="#e8e8e8">(Table of Attempts)</text>
</g>
<!-- PROGRESS_SCREEN&#45;&gt;ATTEMPT_HISTORY -->
<g id="edge25" class="edge">
<title>PROGRESS_SCREEN&#45;&gt;ATTEMPT_HISTORY</title>
<path fill="none" stroke="#000000" d="M1080.75,-343.9C1091.88,-324.59 1107.11,-298.16 1118.43,-278.51"/>
<polygon fill="#000000" stroke="#000000" points="1121.53,-280.16 1123.49,-269.75 1115.46,-276.66 1121.53,-280.16"/>
<text text-anchor="middle" x="1113.5" y="-318.8" font-family="monospace" font-size="9.00">renders</text>
</g>
<!-- START -->
<g id="node16" class="node">
<title>START</title>
<polygon fill="#1a1a1a" stroke="#27ae60" points="1432,-719.74 1250,-719.74 1250,-683.74 1432,-683.74 1432,-719.74"/>
<text text-anchor="middle" x="1341" y="-698.04" font-family="monospace" font-size="14.00" fill="#e8e8e8">1. startDeck(deckId)</text>
</g>
<!-- SELECT_MOVE -->
<g id="node17" class="node">
<title>SELECT_MOVE</title>
<polygon fill="#1a1a1a" stroke="#27ae60" points="1440,-607.87 1242,-607.87 1242,-571.87 1440,-571.87 1440,-607.87"/>
<text text-anchor="middle" x="1341" y="-586.17" font-family="monospace" font-size="14.00" fill="#e8e8e8">2. handleOptionClick()</text>
</g>
<!-- START&#45;&gt;SELECT_MOVE -->
<g id="edge26" class="edge">
<title>START&#45;&gt;SELECT_MOVE</title>
<path fill="none" stroke="#000000" d="M1341,-683.57C1341,-666.08 1341,-638.67 1341,-618.19"/>
<polygon fill="#000000" stroke="#000000" points="1344.5,-617.92 1341,-607.92 1337.5,-617.92 1344.5,-617.92"/>
<text text-anchor="middle" x="1386" y="-658.54" font-family="monospace" font-size="9.00">generates options</text>
</g>
<!-- UPDATE_SESSION -->
<g id="node18" class="node">
<title>UPDATE_SESSION</title>
<polygon fill="#1a1a1a" stroke="#27ae60" points="1538.5,-517 1381.5,-517 1381.5,-464 1538.5,-464 1538.5,-517"/>
<text text-anchor="middle" x="1460" y="-501.8" font-family="monospace" font-size="14.00" fill="#e8e8e8">3. Update Session</text>
<text text-anchor="middle" x="1460" y="-486.8" font-family="monospace" font-size="14.00" fill="#e8e8e8">(moveSequence,</text>
<text text-anchor="middle" x="1460" y="-471.8" font-family="monospace" font-size="14.00" fill="#e8e8e8">currentStreak)</text>
</g>
<!-- SELECT_MOVE&#45;&gt;UPDATE_SESSION -->
<g id="edge27" class="edge">
<title>SELECT_MOVE&#45;&gt;UPDATE_SESSION</title>
<path fill="none" stroke="#000000" d="M1362,-571.69C1378.19,-558.44 1401.03,-539.75 1420.6,-523.74"/>
<polygon fill="#000000" stroke="#000000" points="1422.95,-526.34 1428.47,-517.3 1418.51,-520.92 1422.95,-526.34"/>
</g>
<!-- COMPLETE -->
<g id="node20" class="node">
<title>COMPLETE</title>
<polygon fill="#1a1a1a" stroke="#27ae60" points="1305,-509.5 1173,-509.5 1173,-471.5 1305,-471.5 1305,-509.5"/>
<text text-anchor="middle" x="1239" y="-494.3" font-family="monospace" font-size="14.00" fill="#e8e8e8">5. Final Move?</text>
<text text-anchor="middle" x="1239" y="-479.3" font-family="monospace" font-size="14.00" fill="#e8e8e8">Save Attempt</text>
</g>
<!-- SELECT_MOVE&#45;&gt;COMPLETE -->
<g id="edge30" class="edge">
<title>SELECT_MOVE&#45;&gt;COMPLETE</title>
<path fill="none" stroke="#000000" d="M1319.02,-571.8C1309.25,-563.94 1297.78,-554.3 1288,-545 1278.96,-536.41 1269.59,-526.46 1261.49,-517.49"/>
<polygon fill="#000000" stroke="#000000" points="1264.01,-515.05 1254.74,-509.92 1258.78,-519.71 1264.01,-515.05"/>
<text text-anchor="middle" x="1312" y="-537.8" font-family="monospace" font-size="9.00">last move</text>
</g>
<!-- NEXT_MOVE -->
<g id="node19" class="node">
<title>NEXT_MOVE</title>
<polygon fill="#1a1a1a" stroke="#27ae60" points="1446.5,-389.5 1297.5,-389.5 1297.5,-351.5 1446.5,-351.5 1446.5,-389.5"/>
<text text-anchor="middle" x="1372" y="-374.3" font-family="monospace" font-size="14.00" fill="#e8e8e8">4. Generate Next</text>
<text text-anchor="middle" x="1372" y="-359.3" font-family="monospace" font-size="14.00" fill="#e8e8e8">Options</text>
</g>
<!-- UPDATE_SESSION&#45;&gt;NEXT_MOVE -->
<g id="edge28" class="edge">
<title>UPDATE_SESSION&#45;&gt;NEXT_MOVE</title>
<path fill="none" stroke="#000000" d="M1440.91,-463.9C1426.37,-444.41 1406.44,-417.68 1391.75,-397.98"/>
<polygon fill="#000000" stroke="#000000" points="1394.39,-395.67 1385.61,-389.75 1388.78,-399.85 1394.39,-395.67"/>
</g>
<!-- NEXT_MOVE&#45;&gt;SELECT_MOVE -->
<g id="edge29" class="edge">
<title>NEXT_MOVE&#45;&gt;SELECT_MOVE</title>
<path fill="none" stroke="#000000" d="M1366.51,-389.78C1361.63,-406.77 1354.72,-432.87 1351,-456 1345.19,-492.13 1342.74,-534.35 1341.72,-561.33"/>
<polygon fill="#000000" stroke="#000000" points="1338.21,-561.45 1341.37,-571.56 1345.21,-561.69 1338.21,-561.45"/>
<text text-anchor="middle" x="1362" y="-488.3" font-family="monospace" font-size="9.00">loop</text>
</g>
<!-- COMPLETE&#45;&gt;COMPLETION -->
<g id="edge31" class="edge">
<title>COMPLETE&#45;&gt;COMPLETION</title>
<path fill="none" stroke="#000000" d="M1201.32,-471.4C1173.89,-459.13 1135.49,-443.77 1100,-436 1045.62,-424.09 1027.7,-445.93 975,-428 958.74,-422.47 942.66,-412.93 928.98,-403.24"/>
<polygon fill="#000000" stroke="#000000" points="930.93,-400.33 920.8,-397.23 926.78,-405.97 930.93,-400.33"/>
<text text-anchor="middle" x="1151" y="-438.8" font-family="monospace" font-size="9.00">render</text>
</g>
</g>
</svg>
