<svg xmlns="http://www.w3.org/2000/svg" viewBox="0 0 128 136" width="128" height="136" role="img" aria-label="Animated fire emoji flickering">
  <defs>
    <linearGradient id="emojiOuter" x1="50%" y1="100%" x2="50%" y2="0%">
      <stop offset="0%" stop-color="#C40000"/>
      <stop offset="18%" stop-color="#E82000"/>
      <stop offset="45%" stop-color="#FF5500"/>
      <stop offset="72%" stop-color="#FF8C00"/>
      <stop offset="100%" stop-color="#FFB800"/>
    </linearGradient>
    <linearGradient id="emojiMid" x1="50%" y1="100%" x2="50%" y2="8%">
      <stop offset="0%" stop-color="#FF2200"/>
      <stop offset="30%" stop-color="#FF6600"/>
      <stop offset="65%" stop-color="#FFAA00"/>
      <stop offset="100%" stop-color="#FFD54F"/>
    </linearGradient>
    <linearGradient id="emojiCore" x1="50%" y1="100%" x2="50%" y2="40%">
      <stop offset="0%" stop-color="#FFE566"/>
      <stop offset="55%" stop-color="#FFF176"/>
      <stop offset="100%" stop-color="#FFFDE7"/>
    </linearGradient>
  </defs>

  <g transform-origin="64 118">
    <path fill="url(#emojiOuter)" d="M64 118 C42 118, 26 104, 22 82 C18 62, 28 46, 36 34 C42 24, 46 16, 52 10 C56 6, 60 4, 64 6 C68 8, 70 14, 74 20 C80 30, 88 38, 94 50 C102 66, 106 82, 98 96 C90 110, 78 118, 64 118Z">
      <animate attributeName="d" dur="1.4s" repeatCount="indefinite"
        values="M64 118 C42 118, 26 104, 22 82 C18 62, 28 46, 36 34 C42 24, 46 16, 52 10 C56 6, 60 4, 64 6 C68 8, 70 14, 74 20 C80 30, 88 38, 94 50 C102 66, 106 82, 98 96 C90 110, 78 118, 64 118Z;M64 118 C40 118, 24 102, 20 80 C16 58, 26 44, 34 32 C40 22, 44 14, 50 8 C54 4, 58 3, 62 5 C66 7, 68 13, 72 19 C78 29, 86 36, 92 48 C100 64, 104 80, 96 94 C88 108, 76 118, 64 118Z;M64 118 C44 118, 28 106, 24 84 C20 64, 30 48, 38 36 C44 26, 48 18, 54 12 C58 8, 62 6, 66 8 C70 10, 72 16, 76 22 C82 32, 90 40, 96 52 C104 68, 108 84, 100 98 C92 112, 80 118, 64 118Z;M64 118 C42 118, 26 104, 22 82 C18 62, 28 46, 36 34 C42 24, 46 16, 52 10 C56 6, 60 4, 64 6 C68 8, 70 14, 74 20 C80 30, 88 38, 94 50 C102 66, 106 82, 98 96 C90 110, 78 118, 64 118Z"/>
      <animateTransform attributeName="transform" type="scale" additive="sum" values="1 1;1.03 1.04;0.98 1.01;1.01 1.02;1 1" dur="1.4s" repeatCount="indefinite"/>
    </path>
  </g>

  <g transform-origin="64 118">
    <path fill="url(#emojiMid)" d="M64 114 C48 114, 36 104, 34 86 C32 70, 40 56, 46 46 C50 38, 54 30, 58 24 C60 20, 62 18, 64 20 C66 22, 68 28, 72 34 C78 44, 84 52, 88 62 C94 76, 92 90, 82 100 C74 110, 68 114, 64 114Z">
      <animate attributeName="d" dur="1.1s" repeatCount="indefinite"
        values="M64 114 C48 114, 36 104, 34 86 C32 70, 40 56, 46 46 C50 38, 54 30, 58 24 C60 20, 62 18, 64 20 C66 22, 68 28, 72 34 C78 44, 84 52, 88 62 C94 76, 92 90, 82 100 C74 110, 68 114, 64 114Z;M64 114 C46 114, 34 102, 32 84 C30 68, 38 54, 44 44 C48 36, 52 28, 56 22 C58 18, 60 16, 62 18 C64 20, 66 26, 70 32 C76 42, 82 50, 86 60 C92 74, 90 88, 80 98 C72 108, 66 114, 64 114Z;M64 114 C50 114, 38 106, 36 88 C34 72, 42 58, 48 48 C52 40, 56 32, 60 26 C62 22, 63 19, 65 21 C67 23, 69 29, 73 35 C79 45, 85 53, 89 63 C95 77, 93 91, 83 101 C75 111, 69 114, 64 114Z;M64 114 C48 114, 36 104, 34 86 C32 70, 40 56, 46 46 C50 38, 54 30, 58 24 C60 20, 62 18, 64 20 C66 22, 68 28, 72 34 C78 44, 84 52, 88 62 C94 76, 92 90, 82 100 C74 110, 68 114, 64 114Z"/>
      <animateTransform attributeName="transform" type="scale" additive="sum" values="1 1;0.98 1.03;1.02 0.99;1 1" dur="1.1s" repeatCount="indefinite"/>
    </path>
  </g>

  <g transform-origin="64 108">
    <ellipse cx="64" cy="100" rx="18" ry="14" fill="url(#emojiCore)">
      <animate attributeName="rx" values="18;20;17;19;18" dur="0.85s" repeatCount="indefinite"/>
      <animate attributeName="ry" values="14;12;15;13;14" dur="0.85s" repeatCount="indefinite"/>
      <animate attributeName="opacity" values="0.92;1;0.88;0.96;0.92" dur="0.85s" repeatCount="indefinite"/>
    </ellipse>
    <ellipse cx="64" cy="96" rx="10" ry="7" fill="#FFFDE7" opacity="0.85">
      <animate attributeName="rx" values="10;11;9;10.5;10" dur="0.7s" repeatCount="indefinite"/>
      <animate attributeName="opacity" values="0.75;0.95;0.8;0.9;0.75" dur="0.7s" repeatCount="indefinite"/>
    </ellipse>
  </g>

  <g transform-origin="58 18">
    <path fill="#FFD54F" d="M58 24 C56 18, 58 12, 62 8 C60 14, 60 20, 58 24Z" opacity="0.7">
      <animate attributeName="opacity" values="0.5;0.8;0.55;0.75;0.5" dur="1.3s" repeatCount="indefinite"/>
      <animate attributeName="d" dur="1.3s" repeatCount="indefinite"
        values="M58 24 C56 18, 58 12, 62 8 C60 14, 60 20, 58 24Z;M58 24 C55 17, 57 11, 61 6 C59 13, 59 19, 58 24Z;M58 24 C57 19, 59 13, 63 9 C61 15, 61 21, 58 24Z;M58 24 C56 18, 58 12, 62 8 C60 14, 60 20, 58 24Z"/>
    </path>
  </g>
</svg>
